<svg xmlns="http://www.w3.org/2000/svg" fill="none" viewBox="0 0 25 24"><g fill="#49CE76" clip-path="url(#clip0)"><path d="M19.464 9.999h2c0-5.13-3.873-8.999-9.01-8.999v2c4.062 0 7.01 2.943 7.01 6.999z"/><path d="M12.954 6.5c2.103 0 3 .897 3 3h2c0-3.225-1.775-5-5-5v2zM22.059 16.45l-4.792-4.357a1.18 1.18 0 0 0-1.64.05l-2.82 2.902c-.68-.13-2.045-.555-3.45-1.957-1.405-1.406-1.83-2.775-1.957-3.45L10.3 6.818a1.179 1.179 0 0 0 .05-1.64L5.995.387a1.179 1.179 0 0 0-1.64-.103L1.796 2.478a1.179 1.179 0 0 0-.342.765c-.017.294-.355 7.275 5.059 12.69C11.235 20.656 17.15 21 18.779 21c.238 0 .385-.007.424-.01.288-.015.56-.137.763-.342l2.193-2.56a1.176 1.176 0 0 0-.1-1.638z"/></g><defs><clipPath id="clip0"><path fill="#fff" d="M0 0h24v24H0z" transform="translate(.171)"/></clipPath></defs></svg>