<svg xmlns="http://www.w3.org/2000/svg" fill="none" viewBox="0 0 19 19"><path fill="#224E84" d="M17.813 4.75h-2.435c-.297-1.366-1.484-2.375-2.91-2.375-1.424 0-2.612 1.01-2.909 2.375H1.188v1.188h8.371c.297 1.365 1.485 2.375 2.91 2.375s2.612-1.01 2.91-2.376h2.434V4.75zm-5.344 2.375a1.75 1.75 0 0 1-1.781-1.781 1.75 1.75 0 0 1 1.78-1.782 1.75 1.75 0 0 1 1.782 1.782 1.75 1.75 0 0 1-1.781 1.781zM1.188 14.25h2.434c.297 1.366 1.484 2.375 2.91 2.375 1.424 0 2.612-1.01 2.909-2.375h8.371v-1.188H9.441c-.297-1.365-1.485-2.374-2.91-2.374s-2.612 1.009-2.91 2.374H1.189v1.188zm5.343-2.375a1.75 1.75 0 0 1 1.782 1.781 1.75 1.75 0 0 1-1.782 1.781 1.75 1.75 0 0 1-1.781-1.78 1.75 1.75 0 0 1 1.781-1.782z"/></svg>