<svg xmlns="http://www.w3.org/2000/svg" fill="none" viewBox="0 0 23 23"><path fill="#4D4D4D" d="M16.27 2.348a8.806 8.806 0 0 1 3.11 2.748 10 10 0 0 1 1.656 4.005c.261 1.46.209 2.967-.153 4.4a9.829 9.829 0 0 1-1.93 3.853l.983 1.086a11.403 11.403 0 0 0 2.27-4.472c.428-1.668.497-3.423.198-5.125a11.627 11.627 0 0 0-1.916-4.67c-.96-1.37-2.2-2.47-3.616-3.21a.63.63 0 0 0-.52-.021.722.722 0 0 0-.387.386.84.84 0 0 0-.033.574c.057.19.178.346.338.438v.008zM17.95 18.403l-2.655-2.938-.395-.437L2.27 1.056l-.982 1.079 3.867 4.277H1.143a.66.66 0 0 0-.489.224.808.808 0 0 0-.203.541v7.652c0 .203.073.398.203.542a.66.66 0 0 0 .49.224h4.032l6.577 6.35c.1.098.223.161.355.183a.632.632 0 0 0 .387-.06.717.717 0 0 0 .296-.282.826.826 0 0 0 .11-.414v-6.39l3.867 4.278c-.118.077-.235.153-.353.222a.706.706 0 0 0-.213.184.791.791 0 0 0-.133.26.842.842 0 0 0 .039.585c.04.09.097.17.166.236a.68.68 0 0 0 .235.148.63.63 0 0 0 .529-.043c.256-.146.498-.306.747-.475l1.48 1.638.975-1.064-2.248-2.487-.041-.061z"/><path fill="#4D4D4D" d="M14.761 6.886a4.598 4.598 0 0 1 1.57 1.742c.377.722.577 1.54.582 2.374a5.036 5.036 0 0 1-.983 3l.983 1.087c.89-1.134 1.38-2.585 1.383-4.087a6.86 6.86 0 0 0-.766-3.136 6.073 6.073 0 0 0-2.07-2.304.627.627 0 0 0-.536-.097.665.665 0 0 0-.25.13.745.745 0 0 0-.184.23.823.823 0 0 0-.065.596c.026.099.07.191.129.271a.71.71 0 0 0 .214.194h-.007zM12.901.764a.825.825 0 0 0-.11-.414.717.717 0 0 0-.297-.282.632.632 0 0 0-.386-.06.665.665 0 0 0-.355.182l-4.44 4.286L12.9 10.65V.764z"/></svg>