<svg xmlns="http://www.w3.org/2000/svg" fill="none" viewBox="0 0 24 29"><path fill="#487BFF" d="M2.907 5.824v14.957a5.829 5.829 0 0 0 5.447 5.817l.382.011h10.291a3.498 3.498 0 0 1-3.296 2.332H7.57a6.995 6.995 0 0 1-6.995-6.995V9.123a3.497 3.497 0 0 1 2.331-3.299zM20.394.963A3.497 3.497 0 0 1 23.89 4.46v16.32a3.497 3.497 0 0 1-3.497 3.498H8.736A3.497 3.497 0 0 1 5.24 20.78V4.46A3.497 3.497 0 0 1 8.736.962h11.658zm0 2.331H8.736A1.166 1.166 0 0 0 7.57 4.46v16.32a1.166 1.166 0 0 0 1.166 1.166h11.658a1.166 1.166 0 0 0 1.165-1.165V4.46a1.166 1.166 0 0 0-1.165-1.167z"/></svg>