<svg xmlns="http://www.w3.org/2000/svg" fill="none" viewBox="0 0 19 18"><path fill="#224E84" d="M18.743 7.632l-2.018-.6a6.971 6.971 0 0 0-.573-1.398l.988-1.842a.364.364 0 0 0-.066-.432l-1.44-1.44a.368.368 0 0 0-.434-.066l-1.837.978a7.013 7.013 0 0 0-1.422-.6L11.34.246A.366.366 0 0 0 10.983 0H8.947a.368.368 0 0 0-.35.258l-.602 1.98c-.499.146-.98.348-1.434.6l-1.807-.972a.369.369 0 0 0-.434.066L2.856 3.354a.365.365 0 0 0-.066.432l.976 1.8c-.253.45-.455.927-.602 1.422l-1.994.6a.367.367 0 0 0-.26.348v2.028a.365.365 0 0 0 .26.348l2.006.6c.149.486.35.955.602 1.398l-.988 1.884a.365.365 0 0 0 .066.432l1.44 1.434a.368.368 0 0 0 .434.066l1.861-.99c.44.237.905.426 1.386.564l.603 2.022a.366.366 0 0 0 .349.258h2.036a.37.37 0 0 0 .35-.258l.602-2.028a7.021 7.021 0 0 0 1.374-.564l1.873.996a.37.37 0 0 0 .434-.066l1.44-1.434a.365.365 0 0 0 .066-.432l-1-1.86c.24-.436.431-.897.572-1.374l2.03-.6a.367.367 0 0 0 .26-.348V7.986a.365.365 0 0 0-.223-.354zM9.965 12.3a3.323 3.323 0 0 1-1.84-.556 3.288 3.288 0 0 1-.502-5.077 3.318 3.318 0 0 1 3.61-.716 3.31 3.31 0 0 1 1.487 1.216 3.29 3.29 0 0 1-.412 4.167 3.32 3.32 0 0 1-2.343.966z"/></svg>