<svg xmlns="http://www.w3.org/2000/svg" fill="none" viewBox="0 0 22 22"><path fill="#4D4D4D" d="M12.222 1.222h6.722c1.013 0 1.834.821 1.834 1.834v15.888c0 1.013-.821 1.834-1.834 1.834h-6.722V1.222zm-1.222 0v19.556H3.056a1.833 1.833 0 0 1-1.834-1.834V3.056c0-1.013.821-1.834 1.834-1.834H11zm11 1.834A3.056 3.056 0 0 0 18.944 0H3.056A3.056 3.056 0 0 0 0 3.056v15.888A3.056 3.056 0 0 0 3.056 22h15.888A3.056 3.056 0 0 0 22 18.944V3.056zm-3.056 1.833a.611.611 0 1 0 0-1.222h-4.888a.611.611 0 1 0 0 1.222h4.888zm0 2.444a.611.611 0 1 0 0-1.222h-3.666a.611.611 0 0 0 0 1.222h3.666zm0 2.445a.611.611 0 1 0 0-1.222h-4.888a.611.611 0 1 0 0 1.222h4.888zm0 2.444a.611.611 0 1 0 0-1.222h-3.666a.611.611 0 0 0 0 1.222h3.666z"/></svg>