<svg xmlns="http://www.w3.org/2000/svg" fill="none" viewBox="0 0 23 23"><path fill="#5F5F5F" d="M11.5 21.266a3.129 3.129 0 0 0 3.125-3.125h-6.25a3.129 3.129 0 0 0 3.125 3.125zM15.406 15.797a.781.781 0 1 0 0-1.563.781.781 0 0 0 0 1.563zM7.594 15.797a.781.781 0 1 0 0-1.563.781.781 0 0 0 0 1.563zM2.125 14.625v4.688c0 .215.175.39.39.39h1.172v-5.469H2.516a.391.391 0 0 0-.391.391zM8.375 9.547h6.25v.781h-6.25v-.781zM20.484 14.234h-1.172v5.47h1.172c.216 0 .391-.176.391-.392v-4.687a.391.391 0 0 0-.39-.39z"/><path fill="#5F5F5F" d="M17.36 11.11H5.64c-.645 0-1.171.525-1.171 1.171v9.375c0 .646.526 1.172 1.172 1.172h11.718c.646 0 1.172-.526 1.172-1.172v-9.375c0-.646-.525-1.172-1.172-1.172zM6.03 15.015c0-.862.701-1.563 1.563-1.563.861 0 1.562.7 1.562 1.563 0 .861-.7 1.562-1.562 1.562-.862 0-1.563-.7-1.563-1.562zm9.375 3.125a3.91 3.91 0 0 1-3.906 3.906 3.91 3.91 0 0 1-3.906-3.906v-.391a.39.39 0 0 1 .39-.39h7.032a.39.39 0 0 1 .39.39v.39zm0-1.563c-.862 0-1.562-.7-1.562-1.562 0-.862.7-1.563 1.562-1.563.862 0 1.563.7 1.563 1.563 0 .861-.701 1.562-1.563 1.562zM11.5 7.203a.781.781 0 1 0 0-1.562.781.781 0 0 0 0 1.562zM5.25 6.031a.39.39 0 0 1 .39-.39h2.735c.215 0 .39-.176.39-.391V.562a.391.391 0 0 0-.39-.39H.562a.391.391 0 0 0-.39.39V5.25c0 .215.175.39.39.39h3.516a.39.39 0 0 1 .276.115l.896.896v-.62zM.953.953h7.031v.781H.954v-.78zm6.25 1.563v.78H1.734v-.78h5.47zM.953 4.859v-.78h7.031v.78H.954zM22.438 1.734h-7.813a.391.391 0 0 0-.39.391v4.688c0 .215.175.39.39.39h2.734a.39.39 0 0 1 .391.39v.62l.896-.895a.39.39 0 0 1 .276-.115h3.515c.216 0 .391-.175.391-.39V2.125a.391.391 0 0 0-.39-.39zm-.391 4.688h-7.031V5.64h7.03v.78zm-6.25-1.563v-.78h5.469v.78h-5.47zm6.25-1.562h-7.031v-.781h7.03v.78zM11.5 7.984c-.136 0-.265-.022-.39-.055v1.227h.78V7.93a1.539 1.539 0 0 1-.39.055z"/></svg>