<svg xmlns="http://www.w3.org/2000/svg" fill="none" viewBox="0 0 29 29"><path fill="#406AE0" d="M28.208 23.74l-3.976 3.945c-.587.602-1.365.806-2.122.806-3.35-.1-6.518-1.746-9.118-3.436C8.724 21.95 4.808 18.1 2.35 13.448 1.408 11.497.302 9.008.407 6.83c.01-.82.23-1.623.807-2.151L5.19.705c.826-.702 1.624-.46 2.152.358l3.199 6.066c.337.718.144 1.488-.359 2.001l-1.464 1.464a.719.719 0 0 0-.15.419c.562 2.174 2.263 4.178 3.767 5.557 1.503 1.38 3.119 3.248 5.216 3.69.26.072.577.098.762-.075l1.704-1.733c.588-.445 1.436-.662 2.063-.298h.03l5.769 3.406c.847.53.935 1.557.329 2.18z"/></svg>