<svg xmlns="http://www.w3.org/2000/svg" fill="none" viewBox="0 0 29 27"><path fill="#406AE0" d="M28.665 12.405c0 6.845-6.342 12.394-14.165 12.394-1.403.002-2.8-.18-4.155-.542-1.034.524-3.409 1.53-7.403 2.185-.354.057-.624-.312-.484-.641.627-1.48 1.194-3.453 1.364-5.252-2.17-2.177-3.487-5.028-3.487-8.144C.335 5.56 6.678.01 14.5.01c7.823 0 14.165 5.549 14.165 12.394zm-19.477 0a1.77 1.77 0 1 0-3.541 0 1.77 1.77 0 0 0 3.541 0zm7.083 0a1.77 1.77 0 1 0-3.542 0 1.77 1.77 0 0 0 3.542 0zm5.311 1.77a1.77 1.77 0 1 0 0-3.541 1.77 1.77 0 0 0 0 3.541z"/></svg>