<svg xmlns="http://www.w3.org/2000/svg" fill="none" viewBox="0 0 37 37"><g fill="#406AE0" clip-path="url(#clip0)"><path d="M10.448 22.848c0-1.109.226-2.166.633-3.129-.788-.45-1.7-.71-2.67-.71a5.406 5.406 0 0 0-5.4 5.4c0 1.74.827 3.29 2.108 4.277C2.396 29.938.5 32.691.5 35.878v1.055h7.103v-1.017c0-2.205.658-4.33 1.903-6.147a10.951 10.951 0 0 1 2.3-2.449 8.034 8.034 0 0 1-1.358-4.472zM31.881 28.686a5.393 5.393 0 0 0 2.109-4.276c0-2.978-2.423-5.4-5.4-5.4-.972 0-1.883.259-2.671.71a8.034 8.034 0 0 1-.725 7.601c.881.687 1.657 1.51 2.3 2.448a10.828 10.828 0 0 1 1.903 6.147v1.017H36.5v-1.055c0-3.187-1.896-5.94-4.619-7.192z"/><path d="M21.814 27.778a5.941 5.941 0 0 0 2.628-4.93 5.95 5.95 0 0 0-5.942-5.943 5.95 5.95 0 0 0-5.943 5.943 5.942 5.942 0 0 0 2.628 4.93c-3.207 1.31-5.473 4.465-5.473 8.138v1.017h17.576v-1.017c0-3.673-2.266-6.827-5.474-8.138zM18.595.933H2.003V12.91h6.188l5.321 2.857-.04-2.857h5.123V.933zm-4.848 6.936H6.851V5.76h6.896v2.11zM20.997 5.45v10.213H25.2l-.034 2.474 4.61-2.474h5.22V5.45h-14zm9.83 6.073h-5.662v-2.11h5.663v2.11z"/></g><defs><clipPath id="clip0"><path fill="#fff" d="M0 0h36v36H0z" transform="translate(.5 .933)"/></clipPath></defs></svg>